<mxfile host="app.diagrams.net" modified="2020-10-28T11:45:04.369Z" agent="5.0 (Windows NT 10.0; Win64; x64) AppleWebKit/537.36 (KHTML, like Gecko) Chrome/86.0.4240.111 Safari/537.36 Edg/86.0.622.51" etag="u65GToiIlPm6zeM05hR9" version="13.8.5" type="github">
  <diagram id="rTpPgLSrTS0yxEHF0h6o" name="Page-1">
    <mxGraphModel dx="1510" dy="803" grid="1" gridSize="10" guides="1" tooltips="1" connect="1" arrows="1" fold="1" page="1" pageScale="1" pageWidth="827" pageHeight="1169" math="0" shadow="0">
      <root>
        <mxCell id="0" />
        <mxCell id="1" parent="0" />
        <mxCell id="genFm4xtKhrfWZllDD31-1" value="&lt;p style=&quot;margin: 0px ; margin-top: 4px ; margin-left: 10px ; text-align: left&quot;&gt;db interface&lt;/p&gt;" style="html=1;strokeWidth=1;shape=mxgraph.sysml.package;html=1;overflow=fill;whiteSpace=wrap;fontStyle=1" vertex="1" parent="1">
          <mxGeometry width="1200" height="720" as="geometry" />
        </mxCell>
        <mxCell id="genFm4xtKhrfWZllDD31-2" value="&lt;&lt;Interface&gt;&gt;&#xa;Zarządzanie&#xa;użytkownikami" style="swimlane;fontStyle=1;align=center;verticalAlign=top;childLayout=stackLayout;horizontal=1;startSize=50;horizontalStack=0;resizeParent=1;resizeParentMax=0;resizeLast=0;collapsible=1;marginBottom=0;" vertex="1" parent="1">
          <mxGeometry x="520" y="10" width="160" height="110" as="geometry" />
        </mxCell>
        <mxCell id="genFm4xtKhrfWZllDD31-3" value="+nazwa: String" style="text;strokeColor=none;fillColor=none;align=left;verticalAlign=top;spacingLeft=4;spacingRight=4;overflow=hidden;rotatable=0;points=[[0,0.5],[1,0.5]];portConstraint=eastwest;" vertex="1" parent="genFm4xtKhrfWZllDD31-2">
          <mxGeometry y="50" width="160" height="26" as="geometry" />
        </mxCell>
        <mxCell id="genFm4xtKhrfWZllDD31-4" value="" style="line;strokeWidth=1;fillColor=none;align=left;verticalAlign=middle;spacingTop=-1;spacingLeft=3;spacingRight=3;rotatable=0;labelPosition=right;points=[];portConstraint=eastwest;" vertex="1" parent="genFm4xtKhrfWZllDD31-2">
          <mxGeometry y="76" width="160" height="8" as="geometry" />
        </mxCell>
        <mxCell id="genFm4xtKhrfWZllDD31-5" value="+sprawdźDostęp()" style="text;strokeColor=none;fillColor=none;align=left;verticalAlign=top;spacingLeft=4;spacingRight=4;overflow=hidden;rotatable=0;points=[[0,0.5],[1,0.5]];portConstraint=eastwest;" vertex="1" parent="genFm4xtKhrfWZllDD31-2">
          <mxGeometry y="84" width="160" height="26" as="geometry" />
        </mxCell>
        <mxCell id="genFm4xtKhrfWZllDD31-6" value="Użytkownik&#xa;Zarejestrowany" style="swimlane;fontStyle=1;align=center;verticalAlign=top;childLayout=stackLayout;horizontal=1;startSize=40;horizontalStack=0;resizeParent=1;resizeParentMax=0;resizeLast=0;collapsible=1;marginBottom=0;" vertex="1" parent="1">
          <mxGeometry x="780" y="130" width="170" height="184" as="geometry" />
        </mxCell>
        <mxCell id="genFm4xtKhrfWZllDD31-7" value="+ login:String&#xa;+ hasło:String&#xa;+ imie:String&#xa;+ nazwisko:String&#xa;+ adresZamieszkania:String&#xa;+ telefon:String&#xa;+ uprawnienie:String" style="text;strokeColor=none;fillColor=none;align=left;verticalAlign=top;spacingLeft=4;spacingRight=4;overflow=hidden;rotatable=0;points=[[0,0.5],[1,0.5]];portConstraint=eastwest;" vertex="1" parent="genFm4xtKhrfWZllDD31-6">
          <mxGeometry y="40" width="170" height="110" as="geometry" />
        </mxCell>
        <mxCell id="genFm4xtKhrfWZllDD31-8" value="" style="line;strokeWidth=1;fillColor=none;align=left;verticalAlign=middle;spacingTop=-1;spacingLeft=3;spacingRight=3;rotatable=0;labelPosition=right;points=[];portConstraint=eastwest;" vertex="1" parent="genFm4xtKhrfWZllDD31-6">
          <mxGeometry y="150" width="170" height="8" as="geometry" />
        </mxCell>
        <mxCell id="genFm4xtKhrfWZllDD31-9" value="+ logowanieDoSystemu()" style="text;strokeColor=none;fillColor=none;align=left;verticalAlign=top;spacingLeft=4;spacingRight=4;overflow=hidden;rotatable=0;points=[[0,0.5],[1,0.5]];portConstraint=eastwest;" vertex="1" parent="genFm4xtKhrfWZllDD31-6">
          <mxGeometry y="158" width="170" height="26" as="geometry" />
        </mxCell>
        <mxCell id="genFm4xtKhrfWZllDD31-10" value="Administrator&#xa;Systemu" style="swimlane;fontStyle=1;align=center;verticalAlign=top;childLayout=stackLayout;horizontal=1;startSize=40;horizontalStack=0;resizeParent=1;resizeParentMax=0;resizeLast=0;collapsible=1;marginBottom=0;" vertex="1" parent="1">
          <mxGeometry x="20" y="165" width="300" height="180" as="geometry" />
        </mxCell>
        <mxCell id="genFm4xtKhrfWZllDD31-11" value="+ login:String&#xa;+ hasło:String&#xa;+uprawnienie:String" style="text;strokeColor=none;fillColor=none;align=left;verticalAlign=top;spacingLeft=4;spacingRight=4;overflow=hidden;rotatable=0;points=[[0,0.5],[1,0.5]];portConstraint=eastwest;" vertex="1" parent="genFm4xtKhrfWZllDD31-10">
          <mxGeometry y="40" width="300" height="50" as="geometry" />
        </mxCell>
        <mxCell id="genFm4xtKhrfWZllDD31-12" value="" style="line;strokeWidth=1;fillColor=none;align=left;verticalAlign=middle;spacingTop=-1;spacingLeft=3;spacingRight=3;rotatable=0;labelPosition=right;points=[];portConstraint=eastwest;" vertex="1" parent="genFm4xtKhrfWZllDD31-10">
          <mxGeometry y="90" width="300" height="8" as="geometry" />
        </mxCell>
        <mxCell id="genFm4xtKhrfWZllDD31-13" value="+ logowanieDoSystemu()&#xa;+ wyszukiwanieUżytkowników()&#xa;+ dodawanieNowegoUżytkownika()&#xa;+ zablokowanie/OdblokowanieUżytkownikaSystemu()&#xa;+ nadawaniePrawUżytkownikom()" style="text;strokeColor=none;fillColor=none;align=left;verticalAlign=top;spacingLeft=4;spacingRight=4;overflow=hidden;rotatable=0;points=[[0,0.5],[1,0.5]];portConstraint=eastwest;" vertex="1" parent="genFm4xtKhrfWZllDD31-10">
          <mxGeometry y="98" width="300" height="82" as="geometry" />
        </mxCell>
        <mxCell id="genFm4xtKhrfWZllDD31-14" value="Analiza funkcjonowania e-biblioteki" style="swimlane;fontStyle=1;align=center;verticalAlign=top;childLayout=stackLayout;horizontal=1;startSize=26;horizontalStack=0;resizeParent=1;resizeParentMax=0;resizeLast=0;collapsible=1;marginBottom=0;" vertex="1" parent="1">
          <mxGeometry x="80" y="500" width="210" height="120" as="geometry" />
        </mxCell>
        <mxCell id="genFm4xtKhrfWZllDD31-15" value="+ nr.Raportu:String&#xa;+ocenaPracy:String" style="text;strokeColor=none;fillColor=none;align=left;verticalAlign=top;spacingLeft=4;spacingRight=4;overflow=hidden;rotatable=0;points=[[0,0.5],[1,0.5]];portConstraint=eastwest;" vertex="1" parent="genFm4xtKhrfWZllDD31-14">
          <mxGeometry y="26" width="210" height="44" as="geometry" />
        </mxCell>
        <mxCell id="genFm4xtKhrfWZllDD31-16" value="" style="line;strokeWidth=1;fillColor=none;align=left;verticalAlign=middle;spacingTop=-1;spacingLeft=3;spacingRight=3;rotatable=0;labelPosition=right;points=[];portConstraint=eastwest;" vertex="1" parent="genFm4xtKhrfWZllDD31-14">
          <mxGeometry y="70" width="210" height="8" as="geometry" />
        </mxCell>
        <mxCell id="genFm4xtKhrfWZllDD31-17" value="+ generowanieRaportów()&#xa;+ nadzóreBibliotekarza()" style="text;strokeColor=none;fillColor=none;align=left;verticalAlign=top;spacingLeft=4;spacingRight=4;overflow=hidden;rotatable=0;points=[[0,0.5],[1,0.5]];portConstraint=eastwest;" vertex="1" parent="genFm4xtKhrfWZllDD31-14">
          <mxGeometry y="78" width="210" height="42" as="geometry" />
        </mxCell>
        <mxCell id="genFm4xtKhrfWZllDD31-18" value="Konto Czytelnika" style="swimlane;fontStyle=1;align=center;verticalAlign=top;childLayout=stackLayout;horizontal=1;startSize=26;horizontalStack=0;resizeParent=1;resizeParentMax=0;resizeLast=0;collapsible=1;marginBottom=0;" vertex="1" parent="1">
          <mxGeometry x="850" y="390" width="230" height="300" as="geometry" />
        </mxCell>
        <mxCell id="genFm4xtKhrfWZllDD31-19" value="+ nr.ISBN:String&#xa;+ nr.Zamówienia:String&#xa;+ tytułZasobu:String&#xa;+ autorZasobu:String&#xa;+ dataZamówienia:Date&#xa;+ formaZapłaty:String&#xa;+ statusZapłaty:String&#xa;+ wydawca:String&#xa;+ cenaZasobu:String" style="text;strokeColor=none;fillColor=none;align=left;verticalAlign=top;spacingLeft=4;spacingRight=4;overflow=hidden;rotatable=0;points=[[0,0.5],[1,0.5]];portConstraint=eastwest;" vertex="1" parent="genFm4xtKhrfWZllDD31-18">
          <mxGeometry y="26" width="230" height="144" as="geometry" />
        </mxCell>
        <mxCell id="genFm4xtKhrfWZllDD31-20" value="" style="line;strokeWidth=1;fillColor=none;align=left;verticalAlign=middle;spacingTop=-1;spacingLeft=3;spacingRight=3;rotatable=0;labelPosition=right;points=[];portConstraint=eastwest;" vertex="1" parent="genFm4xtKhrfWZllDD31-18">
          <mxGeometry y="170" width="230" height="8" as="geometry" />
        </mxCell>
        <mxCell id="genFm4xtKhrfWZllDD31-21" value="+ przegladanieZasobów()&#xa;+ wyszukiwanieZasobów()&#xa;+ rezerwowanieZasobów()&#xa;+ wypożyczanieZasobów()&#xa;+ opłataZaZasób()&#xa;+ edycjaSwoichDanych()" style="text;strokeColor=none;fillColor=none;align=left;verticalAlign=top;spacingLeft=4;spacingRight=4;overflow=hidden;rotatable=0;points=[[0,0.5],[1,0.5]];portConstraint=eastwest;" vertex="1" parent="genFm4xtKhrfWZllDD31-18">
          <mxGeometry y="178" width="230" height="122" as="geometry" />
        </mxCell>
        <mxCell id="genFm4xtKhrfWZllDD31-22" value="E-bibliotekarz" style="swimlane;fontStyle=1;align=center;verticalAlign=top;childLayout=stackLayout;horizontal=1;startSize=26;horizontalStack=0;resizeParent=1;resizeParentMax=0;resizeLast=0;collapsible=1;marginBottom=0;" vertex="1" parent="1">
          <mxGeometry x="580" y="165" width="180" height="160" as="geometry" />
        </mxCell>
        <mxCell id="genFm4xtKhrfWZllDD31-23" value="+ login:String&#xa;+ haslo:String&#xa;+ uprawnienie:String" style="text;strokeColor=none;fillColor=none;align=left;verticalAlign=top;spacingLeft=4;spacingRight=4;overflow=hidden;rotatable=0;points=[[0,0.5],[1,0.5]];portConstraint=eastwest;" vertex="1" parent="genFm4xtKhrfWZllDD31-22">
          <mxGeometry y="26" width="180" height="54" as="geometry" />
        </mxCell>
        <mxCell id="genFm4xtKhrfWZllDD31-24" value="" style="line;strokeWidth=1;fillColor=none;align=left;verticalAlign=middle;spacingTop=-1;spacingLeft=3;spacingRight=3;rotatable=0;labelPosition=right;points=[];portConstraint=eastwest;" vertex="1" parent="genFm4xtKhrfWZllDD31-22">
          <mxGeometry y="80" width="180" height="8" as="geometry" />
        </mxCell>
        <mxCell id="genFm4xtKhrfWZllDD31-25" value="+ logowanieDoSystemu()&#xa;+ przyjmowanieOplatZaZasób()&#xa;+ wysyłanieOstrzeżeń()" style="text;strokeColor=none;fillColor=none;align=left;verticalAlign=top;spacingLeft=4;spacingRight=4;overflow=hidden;rotatable=0;points=[[0,0.5],[1,0.5]];portConstraint=eastwest;" vertex="1" parent="genFm4xtKhrfWZllDD31-22">
          <mxGeometry y="88" width="180" height="72" as="geometry" />
        </mxCell>
        <mxCell id="genFm4xtKhrfWZllDD31-26" value="Użytkownik&#xa;Niezarejestrowany" style="swimlane;fontStyle=1;align=center;verticalAlign=top;childLayout=stackLayout;horizontal=1;startSize=40;horizontalStack=0;resizeParent=1;resizeParentMax=0;resizeLast=0;collapsible=1;marginBottom=0;" vertex="1" parent="1">
          <mxGeometry x="970" y="130" width="160" height="200" as="geometry" />
        </mxCell>
        <mxCell id="genFm4xtKhrfWZllDD31-27" value="+ login:String&#xa;+ hasło:String&#xa;+ imie:String&#xa;+ nazwisko:String&#xa;+ adresZamieszkania:String&#xa;+ telefon:String&#xa;+ uprawnienie:String" style="text;strokeColor=none;fillColor=none;align=left;verticalAlign=top;spacingLeft=4;spacingRight=4;overflow=hidden;rotatable=0;points=[[0,0.5],[1,0.5]];portConstraint=eastwest;" vertex="1" parent="genFm4xtKhrfWZllDD31-26">
          <mxGeometry y="40" width="160" height="110" as="geometry" />
        </mxCell>
        <mxCell id="genFm4xtKhrfWZllDD31-28" value="" style="line;strokeWidth=1;fillColor=none;align=left;verticalAlign=middle;spacingTop=-1;spacingLeft=3;spacingRight=3;rotatable=0;labelPosition=right;points=[];portConstraint=eastwest;" vertex="1" parent="genFm4xtKhrfWZllDD31-26">
          <mxGeometry y="150" width="160" height="8" as="geometry" />
        </mxCell>
        <mxCell id="genFm4xtKhrfWZllDD31-29" value="+ rejestracja()&#xa;+ logowanie()" style="text;strokeColor=none;fillColor=none;align=left;verticalAlign=top;spacingLeft=4;spacingRight=4;overflow=hidden;rotatable=0;points=[[0,0.5],[1,0.5]];portConstraint=eastwest;" vertex="1" parent="genFm4xtKhrfWZllDD31-26">
          <mxGeometry y="158" width="160" height="42" as="geometry" />
        </mxCell>
        <mxCell id="genFm4xtKhrfWZllDD31-30" value="Kierownik&#xa;Biblioteki" style="swimlane;fontStyle=1;align=center;verticalAlign=top;childLayout=stackLayout;horizontal=1;startSize=40;horizontalStack=0;resizeParent=1;resizeParentMax=0;resizeLast=0;collapsible=1;marginBottom=0;" vertex="1" parent="1">
          <mxGeometry x="350" y="165" width="200" height="170" as="geometry" />
        </mxCell>
        <mxCell id="genFm4xtKhrfWZllDD31-31" value="+ login:String&#xa;+ hasło:String&#xa;+uprawnienie:String" style="text;strokeColor=none;fillColor=none;align=left;verticalAlign=top;spacingLeft=4;spacingRight=4;overflow=hidden;rotatable=0;points=[[0,0.5],[1,0.5]];portConstraint=eastwest;" vertex="1" parent="genFm4xtKhrfWZllDD31-30">
          <mxGeometry y="40" width="200" height="50" as="geometry" />
        </mxCell>
        <mxCell id="genFm4xtKhrfWZllDD31-32" value="" style="line;strokeWidth=1;fillColor=none;align=left;verticalAlign=middle;spacingTop=-1;spacingLeft=3;spacingRight=3;rotatable=0;labelPosition=right;points=[];portConstraint=eastwest;" vertex="1" parent="genFm4xtKhrfWZllDD31-30">
          <mxGeometry y="90" width="200" height="8" as="geometry" />
        </mxCell>
        <mxCell id="genFm4xtKhrfWZllDD31-33" value="+ logowanieDoSystemu()&#xa;+ edycjaUżytkowników()&#xa;+ nadawaniePrawUżytkownikom()&#xa;+ zamawianieNowychZasobów()" style="text;strokeColor=none;fillColor=none;align=left;verticalAlign=top;spacingLeft=4;spacingRight=4;overflow=hidden;rotatable=0;points=[[0,0.5],[1,0.5]];portConstraint=eastwest;" vertex="1" parent="genFm4xtKhrfWZllDD31-30">
          <mxGeometry y="98" width="200" height="72" as="geometry" />
        </mxCell>
        <mxCell id="genFm4xtKhrfWZllDD31-34" value="KontoPracownika" style="swimlane;fontStyle=1;align=center;verticalAlign=top;childLayout=stackLayout;horizontal=1;startSize=26;horizontalStack=0;resizeParent=1;resizeParentMax=0;resizeLast=0;collapsible=1;marginBottom=0;" vertex="1" parent="1">
          <mxGeometry x="490" y="500" width="160" height="170" as="geometry" />
        </mxCell>
        <mxCell id="genFm4xtKhrfWZllDD31-35" value="+ nr.Zasobu:String&#xa;+ tytułZasobu:String" style="text;strokeColor=none;fillColor=none;align=left;verticalAlign=top;spacingLeft=4;spacingRight=4;overflow=hidden;rotatable=0;points=[[0,0.5],[1,0.5]];portConstraint=eastwest;" vertex="1" parent="genFm4xtKhrfWZllDD31-34">
          <mxGeometry y="26" width="160" height="44" as="geometry" />
        </mxCell>
        <mxCell id="genFm4xtKhrfWZllDD31-36" value="" style="line;strokeWidth=1;fillColor=none;align=left;verticalAlign=middle;spacingTop=-1;spacingLeft=3;spacingRight=3;rotatable=0;labelPosition=right;points=[];portConstraint=eastwest;" vertex="1" parent="genFm4xtKhrfWZllDD31-34">
          <mxGeometry y="70" width="160" height="8" as="geometry" />
        </mxCell>
        <mxCell id="genFm4xtKhrfWZllDD31-37" value="+ dodawanieZasobów()&#xa;+ usuwanieZasobów()&#xa;+ wydawanieZasobów()" style="text;strokeColor=none;fillColor=none;align=left;verticalAlign=top;spacingLeft=4;spacingRight=4;overflow=hidden;rotatable=0;points=[[0,0.5],[1,0.5]];portConstraint=eastwest;" vertex="1" parent="genFm4xtKhrfWZllDD31-34">
          <mxGeometry y="78" width="160" height="92" as="geometry" />
        </mxCell>
        <mxCell id="genFm4xtKhrfWZllDD31-40" value="" style="edgeStyle=none;html=1;endSize=12;endArrow=block;endFill=0;entryX=0;entryY=0.25;entryDx=0;entryDy=0;exitX=0.5;exitY=0;exitDx=0;exitDy=0;" edge="1" parent="1" source="genFm4xtKhrfWZllDD31-10" target="genFm4xtKhrfWZllDD31-2">
          <mxGeometry width="160" relative="1" as="geometry">
            <mxPoint x="330" y="70" as="sourcePoint" />
            <mxPoint x="490" y="70" as="targetPoint" />
          </mxGeometry>
        </mxCell>
        <mxCell id="genFm4xtKhrfWZllDD31-41" value="" style="edgeStyle=none;html=1;endSize=12;endArrow=block;endFill=0;exitX=0.25;exitY=0;exitDx=0;exitDy=0;entryX=0;entryY=0.5;entryDx=0;entryDy=0;" edge="1" parent="1" source="genFm4xtKhrfWZllDD31-30" target="genFm4xtKhrfWZllDD31-5">
          <mxGeometry width="160" relative="1" as="geometry">
            <mxPoint x="350" y="129" as="sourcePoint" />
            <mxPoint x="510" y="129" as="targetPoint" />
          </mxGeometry>
        </mxCell>
        <mxCell id="genFm4xtKhrfWZllDD31-42" value="" style="edgeStyle=none;html=1;endSize=12;endArrow=block;endFill=0;exitX=0.5;exitY=0;exitDx=0;exitDy=0;entryX=1.003;entryY=0.681;entryDx=0;entryDy=0;entryPerimeter=0;" edge="1" parent="1" source="genFm4xtKhrfWZllDD31-22" target="genFm4xtKhrfWZllDD31-4">
          <mxGeometry width="160" relative="1" as="geometry">
            <mxPoint x="360" y="139" as="sourcePoint" />
            <mxPoint x="520" y="139" as="targetPoint" />
          </mxGeometry>
        </mxCell>
        <mxCell id="genFm4xtKhrfWZllDD31-43" value="" style="edgeStyle=none;html=1;endSize=12;endArrow=block;endFill=0;exitX=0.5;exitY=0;exitDx=0;exitDy=0;entryX=1;entryY=0.25;entryDx=0;entryDy=0;" edge="1" parent="1" source="genFm4xtKhrfWZllDD31-6" target="genFm4xtKhrfWZllDD31-2">
          <mxGeometry width="160" relative="1" as="geometry">
            <mxPoint x="790" y="60" as="sourcePoint" />
            <mxPoint x="950" y="60" as="targetPoint" />
          </mxGeometry>
        </mxCell>
        <mxCell id="genFm4xtKhrfWZllDD31-44" value="" style="edgeStyle=none;html=1;endSize=12;endArrow=block;endFill=0;exitX=0.5;exitY=0;exitDx=0;exitDy=0;entryX=1;entryY=0.5;entryDx=0;entryDy=0;" edge="1" parent="1" source="genFm4xtKhrfWZllDD31-26" target="genFm4xtKhrfWZllDD31-3">
          <mxGeometry width="160" relative="1" as="geometry">
            <mxPoint x="800" y="70" as="sourcePoint" />
            <mxPoint x="750" y="50" as="targetPoint" />
          </mxGeometry>
        </mxCell>
        <mxCell id="genFm4xtKhrfWZllDD31-45" value="" style="edgeStyle=none;html=1;endSize=12;endArrow=block;endFill=0;exitX=0.5;exitY=0;exitDx=0;exitDy=0;" edge="1" parent="1" source="genFm4xtKhrfWZllDD31-18" target="genFm4xtKhrfWZllDD31-9">
          <mxGeometry width="160" relative="1" as="geometry">
            <mxPoint x="760" y="359.5" as="sourcePoint" />
            <mxPoint x="920" y="359.5" as="targetPoint" />
          </mxGeometry>
        </mxCell>
        <mxCell id="genFm4xtKhrfWZllDD31-46" value="" style="edgeStyle=none;html=1;endSize=12;endArrow=block;endFill=0;exitX=0.75;exitY=0;exitDx=0;exitDy=0;" edge="1" parent="1" source="genFm4xtKhrfWZllDD31-18" target="genFm4xtKhrfWZllDD31-29">
          <mxGeometry width="160" relative="1" as="geometry">
            <mxPoint x="770" y="369.5" as="sourcePoint" />
            <mxPoint x="930" y="369.5" as="targetPoint" />
          </mxGeometry>
        </mxCell>
        <mxCell id="genFm4xtKhrfWZllDD31-47" value="" style="edgeStyle=none;html=1;endSize=12;endArrow=block;endFill=0;exitX=0.75;exitY=0;exitDx=0;exitDy=0;entryX=0.533;entryY=1.014;entryDx=0;entryDy=0;entryPerimeter=0;" edge="1" parent="1" source="genFm4xtKhrfWZllDD31-34" target="genFm4xtKhrfWZllDD31-25">
          <mxGeometry width="160" relative="1" as="geometry">
            <mxPoint x="590" y="480" as="sourcePoint" />
            <mxPoint x="750" y="480" as="targetPoint" />
          </mxGeometry>
        </mxCell>
        <mxCell id="genFm4xtKhrfWZllDD31-48" value="" style="edgeStyle=none;html=1;endSize=12;endArrow=block;endFill=0;exitX=0.25;exitY=0;exitDx=0;exitDy=0;" edge="1" parent="1" source="genFm4xtKhrfWZllDD31-34" target="genFm4xtKhrfWZllDD31-33">
          <mxGeometry width="160" relative="1" as="geometry">
            <mxPoint x="410" y="390" as="sourcePoint" />
            <mxPoint x="570" y="390" as="targetPoint" />
          </mxGeometry>
        </mxCell>
        <mxCell id="genFm4xtKhrfWZllDD31-49" value="" style="edgeStyle=none;html=1;endSize=12;endArrow=block;endFill=0;exitX=0.75;exitY=0;exitDx=0;exitDy=0;" edge="1" parent="1" source="genFm4xtKhrfWZllDD31-14" target="genFm4xtKhrfWZllDD31-33">
          <mxGeometry width="160" relative="1" as="geometry">
            <mxPoint x="140" y="420" as="sourcePoint" />
            <mxPoint x="300" y="420" as="targetPoint" />
          </mxGeometry>
        </mxCell>
      </root>
    </mxGraphModel>
  </diagram>
</mxfile>
